<svg width="50" height="50" viewBox="0 0 50 50" fill="none" xmlns="http://www.w3.org/2000/svg">
<path d="M38.9109 44.5528C35.4931 40.7355 30.5272 38.3333 25 38.3333C19.4729 38.3333 14.5065 40.7355 11.0885 44.5528M25 49C11.7452 49 1 38.2549 1 25C1 11.7452 11.7452 1 25 1C38.2549 1 49 11.7452 49 25C49 38.2549 38.2549 49 25 49ZM25 30.3333C20.5816 30.3333 17 26.7517 17 22.3333C17 17.9151 20.5816 14.3333 25 14.3333C29.4184 14.3333 33 17.9151 33 22.3333C33 26.7517 29.4184 30.3333 25 30.3333Z" stroke="#252525" stroke-width="2" stroke-linecap="round" stroke-linejoin="round"/>
</svg>